# xmcd CD database file
#
# Track frame offsets:
#	150
#	12327
#	23089
#	34959
#	43973
#	53022
#	63520
#	74993
#	84841
#	98857
#	108449
#	116871
#	128894
#	138040
#	146740
#	156869
#	167109
#	179028
#	188460
#	198581
#	210340
#	221604
#	234087
#	245455
#	265768
#	275917
#	287666
#	298672
#	308731
#	318066
#
# Disc length: 4370 seconds
#
# Revision: 1
# Processed by: cddbd v1.5.2PL0 Copyright (c) Steve Scherf et al.
# Submitted via: CDex 1.94
#
DISCID=c411101e
DTITLE=Various Artist - Jukebox In Crampsville 2
DYEAR=1900
DGENRE=Blues
TTITLE0=Frank Motley and His Motley Crew - Honkin' At Midnight
TTITLE1=Lee Braun - Talk About A Party
TTITLE2=The Royal Teens - Mad Gass
TTITLE3=Jimmy Heap - Gismo
TTITLE4=The Knight Beats - Naughty Rooster
TTITLE5=Claude and The Hightones - Monkey Stuff
TTITLE6=Bob Bunny - The Joker
TTITLE7=Big Bob - Wowsville (Part 1)
TTITLE8=Big Daddy - Daniel Webster and The Devil
TTITLE9=Bing Day - Mama's Place
TTITLE10=Sidney Jo Lewis - Boppin' To Grandfather's Clock
TTITLE11=Drits and Dravy - Talk That Talk (Part 2)
TTITLE12=Patsy Ann Hinson with The Silvertones - Shorty
TTITLE13=Patsy Clark - Whatcha Do To Me
TTITLE14=Red (Hot) Russell - Pedro Joe
TTITLE15=The Blonde Bomber - Strollie Bun
TTITLE16=The Nomads - Icky Poo
TTITLE17=The Earthworms - Mo' Taters
TTITLE18=The Hollywood Vines - Cruisin'
TTITLE19=Big Joe Turner - The Chicken And The Hawk (Up. Up And Away)
TTITLE20=Ruth Brown - Wild Wild Young Men
TTITLE21=Kitty Wells - The Waltz Of Angels
TTITLE22=Elton Britt - Fickle Woman
TTITLE23=Buzz Martin - A Logger's Wife
TTITLE24=Buck Owens - Hot Dog
TTITLE25=Charlie Feathers - Tear It Up
TTITLE26=Round Robin - I'm The Wolfman
TTITLE27=Carlos Casal Jr. - Don't Meet Mr. Frankenstein
TTITLE28=The Peppermint Sticks - El Twisto
TTITLE29=The Monorays - What's Your Name?
EXTD=
EXTT0=
EXTT1=
EXTT2=
EXTT3=
EXTT4=
EXTT5=
EXTT6=
EXTT7=
EXTT8=
EXTT9=
EXTT10=
EXTT11=
EXTT12=
EXTT13=
EXTT14=
EXTT15=
EXTT16=
EXTT17=
EXTT18=
EXTT19=
EXTT20=
EXTT21=
EXTT22=
EXTT23=
EXTT24=
EXTT25=
EXTT26=
EXTT27=
EXTT28=
EXTT29=
PLAYORDER=
